<?xml version="1.0" encoding="UTF-8" standalone="no"?>
<!DOCTYPE svg PUBLIC "-//W3C//DTD SVG 1.1//EN"
 "http://www.w3.org/Graphics/SVG/1.1/DTD/svg11.dtd">
<!-- Generated by graphviz version 2.40.1 (20161225.0304)
 -->
<!-- Title: dependencies Pages: 1 -->
<svg width="913pt" height="284pt"
 viewBox="0.00 0.00 913.00 284.00" xmlns="http://www.w3.org/2000/svg" xmlns:xlink="http://www.w3.org/1999/xlink">
<g id="graph0" class="graph" transform="scale(1 1) rotate(0) translate(4 280)">
<title>dependencies</title>
<polygon fill="#ffffff" stroke="transparent" points="-4,4 -4,-280 909,-280 909,4 -4,4"/>
<text text-anchor="start" x="431.5091" y="-42.4" font-family="sans-serif" font-weight="bold" font-size="14.00" fill="#000000">Legend</text>
<polygon fill="#ffffb3" stroke="transparent" points="218.5,-10 218.5,-30 238.5,-30 238.5,-10 218.5,-10"/>
<text text-anchor="start" x="242.129" y="-15.4" font-family="sans-serif" font-size="14.00" fill="#000000"> &#160;Declarations</text>
<polygon fill="#8dd3c7" stroke="transparent" points="331.5,-10 331.5,-30 351.5,-30 351.5,-10 331.5,-10"/>
<text text-anchor="start" x="355.2251" y="-15.4" font-family="sans-serif" font-size="14.00" fill="#000000"> &#160;Module</text>
<polygon fill="#80b1d3" stroke="transparent" points="417.5,-10 417.5,-30 437.5,-30 437.5,-10 417.5,-10"/>
<text text-anchor="start" x="441.2812" y="-15.4" font-family="sans-serif" font-size="14.00" fill="#000000"> &#160;Bootstrap</text>
<polygon fill="#fdb462" stroke="transparent" points="514.5,-10 514.5,-30 534.5,-30 534.5,-10 514.5,-10"/>
<text text-anchor="start" x="538.1732" y="-15.4" font-family="sans-serif" font-size="14.00" fill="#000000"> &#160;Providers</text>
<polygon fill="#fb8072" stroke="transparent" points="610.5,-10 610.5,-30 630.5,-30 630.5,-10 610.5,-10"/>
<text text-anchor="start" x="634.2258" y="-15.4" font-family="sans-serif" font-size="14.00" fill="#000000"> &#160;Exports</text>
<g id="clust1" class="cluster">
<title>cluster_CoreModule</title>
<polygon fill="none" stroke="#000000" stroke-dasharray="1,5" points="8,-70 8,-268 897,-268 897,-70 8,-70"/>
</g>
<g id="clust2" class="cluster">
<title>cluster_CoreModule_declarations</title>
<polygon fill="none" stroke="#000000" points="348,-78 348,-130 889,-130 889,-78 348,-78"/>
</g>
<g id="clust7" class="cluster">
<title>cluster_CoreModule_imports</title>
<polygon fill="none" stroke="#000000" points="16,-78 16,-130 340,-130 340,-78 16,-78"/>
</g>
<g id="clust8" class="cluster">
<title>cluster_CoreModule_exports</title>
<polygon fill="none" stroke="#000000" points="407,-208 407,-260 547,-260 547,-208 407,-208"/>
</g>
<!-- LayoutComponent -->
<g id="node1" class="node">
<title>LayoutComponent</title>
<polygon fill="#ffffb3" stroke="#000000" points="881.4902,-122 760.5098,-122 760.5098,-86 881.4902,-86 881.4902,-122"/>
<text text-anchor="middle" x="821" y="-99.8" font-family="Times,serif" font-size="14.00" fill="#000000">LayoutComponent</text>
</g>
<!-- CoreModule -->
<g id="node5" class="node">
<title>CoreModule</title>
<polygon fill="#8dd3c7" stroke="#000000" points="520.2619,-187 517.2619,-191 496.2619,-191 493.2619,-187 433.7381,-187 433.7381,-151 520.2619,-151 520.2619,-187"/>
<text text-anchor="middle" x="477" y="-164.8" font-family="Times,serif" font-size="14.00" fill="#000000">CoreModule</text>
</g>
<!-- LayoutComponent&#45;&gt;CoreModule -->
<g id="edge1" class="edge">
<title>LayoutComponent&#45;&gt;CoreModule</title>
<path fill="none" stroke="#000000" d="M821,-122.2843C821,-143.3211 821,-175 821,-175 821,-175 530.5678,-175 530.5678,-175"/>
<polygon fill="#000000" stroke="#000000" points="530.5679,-171.5001 520.5678,-175 530.5678,-178.5001 530.5679,-171.5001"/>
</g>
<!-- NavbarComponent -->
<g id="node2" class="node">
<title>NavbarComponent</title>
<polygon fill="#ffffb3" stroke="#000000" points="742.0297,-122 619.9703,-122 619.9703,-86 742.0297,-86 742.0297,-122"/>
<text text-anchor="middle" x="681" y="-99.8" font-family="Times,serif" font-size="14.00" fill="#000000">NavbarComponent</text>
</g>
<!-- NavbarComponent&#45;&gt;CoreModule -->
<g id="edge2" class="edge">
<title>NavbarComponent&#45;&gt;CoreModule</title>
<path fill="none" stroke="#000000" d="M681,-122.0225C681,-139.3734 681,-163 681,-163 681,-163 530.2632,-163 530.2632,-163"/>
<polygon fill="#000000" stroke="#000000" points="530.2632,-159.5001 520.2632,-163 530.2631,-166.5001 530.2632,-159.5001"/>
</g>
<!-- FooterComponent -->
<g id="node3" class="node">
<title>FooterComponent</title>
<polygon fill="#ffffb3" stroke="#000000" points="601.8809,-122 484.1191,-122 484.1191,-86 601.8809,-86 601.8809,-122"/>
<text text-anchor="middle" x="543" y="-99.8" font-family="Times,serif" font-size="14.00" fill="#000000">FooterComponent</text>
</g>
<!-- FooterComponent&#45;&gt;CoreModule -->
<g id="edge3" class="edge">
<title>FooterComponent&#45;&gt;CoreModule</title>
<path fill="none" stroke="#000000" d="M502.2202,-122.1061C502.2202,-122.1061 502.2202,-140.991 502.2202,-140.991"/>
<polygon fill="#000000" stroke="#000000" points="498.7203,-140.9909 502.2202,-150.991 505.7203,-140.991 498.7203,-140.9909"/>
</g>
<!-- MainComponent -->
<g id="node4" class="node">
<title>MainComponent</title>
<polygon fill="#ffffb3" stroke="#000000" points="466.3823,-122 355.6177,-122 355.6177,-86 466.3823,-86 466.3823,-122"/>
<text text-anchor="middle" x="411" y="-99.8" font-family="Times,serif" font-size="14.00" fill="#000000">MainComponent</text>
</g>
<!-- MainComponent&#45;&gt;CoreModule -->
<g id="edge4" class="edge">
<title>MainComponent&#45;&gt;CoreModule</title>
<path fill="none" stroke="#000000" d="M450.0302,-122.1061C450.0302,-122.1061 450.0302,-140.991 450.0302,-140.991"/>
<polygon fill="#000000" stroke="#000000" points="446.5302,-140.9909 450.0302,-150.991 453.5302,-140.991 446.5302,-140.9909"/>
</g>
<!-- LayoutComponent  -->
<g id="node8" class="node">
<title>LayoutComponent </title>
<polygon fill="#fb8072" stroke="#000000" points="539.4912,-252 414.5088,-252 414.5088,-216 539.4912,-216 539.4912,-252"/>
<text text-anchor="middle" x="477" y="-229.8" font-family="Times,serif" font-size="14.00" fill="#000000">LayoutComponent </text>
</g>
<!-- CoreModule&#45;&gt;LayoutComponent  -->
<g id="edge7" class="edge">
<title>CoreModule&#45;&gt;LayoutComponent </title>
<path fill="none" stroke="#000000" stroke-dasharray="5,2" d="M477,-187.1061C477,-187.1061 477,-205.991 477,-205.991"/>
<polygon fill="#000000" stroke="#000000" points="473.5001,-205.9909 477,-215.991 480.5001,-205.991 473.5001,-205.9909"/>
</g>
<!-- CommonModule -->
<g id="node6" class="node">
<title>CommonModule</title>
<polygon fill="#8dd3c7" stroke="#000000" points="331.6681,-122 328.6681,-126 307.6681,-126 304.6681,-122 220.3319,-122 220.3319,-86 331.6681,-86 331.6681,-122"/>
<text text-anchor="middle" x="276" y="-99.8" font-family="Times,serif" font-size="14.00" fill="#000000">CommonModule</text>
</g>
<!-- CommonModule&#45;&gt;CoreModule -->
<g id="edge5" class="edge">
<title>CommonModule&#45;&gt;CoreModule</title>
<path fill="none" stroke="#000000" d="M276,-122.0225C276,-139.3734 276,-163 276,-163 276,-163 423.386,-163 423.386,-163"/>
<polygon fill="#000000" stroke="#000000" points="423.386,-166.5001 433.386,-163 423.386,-159.5001 423.386,-166.5001"/>
</g>
<!-- RouterModule.forRoot(args) -->
<g id="node7" class="node">
<title>RouterModule.forRoot(args)</title>
<polygon fill="#8dd3c7" stroke="#000000" points="201.8419,-122 198.8419,-126 177.8419,-126 174.8419,-122 24.1581,-122 24.1581,-86 201.8419,-86 201.8419,-122"/>
<text text-anchor="middle" x="113" y="-99.8" font-family="Times,serif" font-size="14.00" fill="#000000">RouterModule.forRoot(args)</text>
</g>
<!-- RouterModule.forRoot(args)&#45;&gt;CoreModule -->
<g id="edge6" class="edge">
<title>RouterModule.forRoot(args)&#45;&gt;CoreModule</title>
<path fill="none" stroke="#000000" d="M113,-122.2843C113,-143.3211 113,-175 113,-175 113,-175 423.4546,-175 423.4546,-175"/>
<polygon fill="#000000" stroke="#000000" points="423.4547,-178.5001 433.4546,-175 423.4546,-171.5001 423.4547,-178.5001"/>
</g>
</g>
</svg>
