<?xml version="1.0" encoding="UTF-8" standalone="no"?>
<!DOCTYPE svg PUBLIC "-//W3C//DTD SVG 1.1//EN"
 "http://www.w3.org/Graphics/SVG/1.1/DTD/svg11.dtd">
<!-- Generated by graphviz version 2.40.1 (20161225.0304)
 -->
<!-- Title: dependencies Pages: 1 -->
<svg width="504pt" height="284pt"
 viewBox="0.00 0.00 504.00 284.00" xmlns="http://www.w3.org/2000/svg" xmlns:xlink="http://www.w3.org/1999/xlink">
<g id="graph0" class="graph" transform="scale(1 1) rotate(0) translate(4 280)">
<title>dependencies</title>
<polygon fill="#ffffff" stroke="transparent" points="-4,4 -4,-280 500,-280 500,4 -4,4"/>
<text text-anchor="start" x="227.0091" y="-42.4" font-family="sans-serif" font-weight="bold" font-size="14.00" fill="#000000">Legend</text>
<polygon fill="#ffffb3" stroke="transparent" points="14,-10 14,-30 34,-30 34,-10 14,-10"/>
<text text-anchor="start" x="37.629" y="-15.4" font-family="sans-serif" font-size="14.00" fill="#000000"> &#160;Declarations</text>
<polygon fill="#8dd3c7" stroke="transparent" points="127,-10 127,-30 147,-30 147,-10 127,-10"/>
<text text-anchor="start" x="150.7251" y="-15.4" font-family="sans-serif" font-size="14.00" fill="#000000"> &#160;Module</text>
<polygon fill="#80b1d3" stroke="transparent" points="213,-10 213,-30 233,-30 233,-10 213,-10"/>
<text text-anchor="start" x="236.7812" y="-15.4" font-family="sans-serif" font-size="14.00" fill="#000000"> &#160;Bootstrap</text>
<polygon fill="#fdb462" stroke="transparent" points="310,-10 310,-30 330,-30 330,-10 310,-10"/>
<text text-anchor="start" x="333.6732" y="-15.4" font-family="sans-serif" font-size="14.00" fill="#000000"> &#160;Providers</text>
<polygon fill="#fb8072" stroke="transparent" points="406,-10 406,-30 426,-30 426,-10 406,-10"/>
<text text-anchor="start" x="429.7258" y="-15.4" font-family="sans-serif" font-size="14.00" fill="#000000"> &#160;Exports</text>
<g id="clust1" class="cluster">
<title>cluster_AppModule</title>
<polygon fill="none" stroke="#000000" stroke-dasharray="1,5" points="18.5,-70 18.5,-268 477.5,-268 477.5,-70 18.5,-70"/>
</g>
<g id="clust3" class="cluster">
<title>cluster_AppModule_imports</title>
<polygon fill="none" stroke="#000000" points="26.5,-78 26.5,-130 469.5,-130 469.5,-78 26.5,-78"/>
</g>
<g id="clust5" class="cluster">
<title>cluster_AppModule_bootstrap</title>
<polygon fill="none" stroke="#000000" points="164.5,-208 164.5,-260 304.5,-260 304.5,-208 164.5,-208"/>
</g>
<!-- BrowserModule -->
<g id="node1" class="node">
<title>BrowserModule</title>
<polygon fill="#8dd3c7" stroke="#000000" points="461.9734,-122 458.9734,-126 437.9734,-126 434.9734,-122 355.0266,-122 355.0266,-86 461.9734,-86 461.9734,-122"/>
<text text-anchor="middle" x="408.5" y="-99.8" font-family="Times,serif" font-size="14.00" fill="#000000">BrowserModule</text>
</g>
<!-- AppModule -->
<g id="node5" class="node">
<title>AppModule</title>
<polygon fill="#8dd3c7" stroke="#000000" points="276.1571,-187 273.1571,-191 252.1571,-191 249.1571,-187 192.8429,-187 192.8429,-151 276.1571,-151 276.1571,-187"/>
<text text-anchor="middle" x="234.5" y="-164.8" font-family="Times,serif" font-size="14.00" fill="#000000">AppModule</text>
</g>
<!-- BrowserModule&#45;&gt;AppModule -->
<g id="edge1" class="edge">
<title>BrowserModule&#45;&gt;AppModule</title>
<path fill="none" stroke="#000000" d="M408.5,-122.1061C408.5,-141.3391 408.5,-169 408.5,-169 408.5,-169 286.1773,-169 286.1773,-169"/>
<polygon fill="#000000" stroke="#000000" points="286.1774,-165.5001 276.1773,-169 286.1773,-172.5001 286.1774,-165.5001"/>
</g>
<!-- FormsModule -->
<g id="node2" class="node">
<title>FormsModule</title>
<polygon fill="#8dd3c7" stroke="#000000" points="337.3288,-122 334.3288,-126 313.3288,-126 310.3288,-122 241.6712,-122 241.6712,-86 337.3288,-86 337.3288,-122"/>
<text text-anchor="middle" x="289.5" y="-99.8" font-family="Times,serif" font-size="14.00" fill="#000000">FormsModule</text>
</g>
<!-- FormsModule&#45;&gt;AppModule -->
<g id="edge2" class="edge">
<title>FormsModule&#45;&gt;AppModule</title>
<path fill="none" stroke="#000000" d="M259.0821,-122.1061C259.0821,-122.1061 259.0821,-140.991 259.0821,-140.991"/>
<polygon fill="#000000" stroke="#000000" points="255.5821,-140.9909 259.0821,-150.991 262.5821,-140.991 255.5821,-140.9909"/>
</g>
<!-- CoreModule -->
<g id="node3" class="node">
<title>CoreModule</title>
<polygon fill="#8dd3c7" stroke="#000000" points="223.7619,-122 220.7619,-126 199.7619,-126 196.7619,-122 137.2381,-122 137.2381,-86 223.7619,-86 223.7619,-122"/>
<text text-anchor="middle" x="180.5" y="-99.8" font-family="Times,serif" font-size="14.00" fill="#000000">CoreModule</text>
</g>
<!-- CoreModule&#45;&gt;AppModule -->
<g id="edge3" class="edge">
<title>CoreModule&#45;&gt;AppModule</title>
<path fill="none" stroke="#000000" d="M208.2763,-122.1061C208.2763,-122.1061 208.2763,-140.991 208.2763,-140.991"/>
<polygon fill="#000000" stroke="#000000" points="204.7764,-140.9909 208.2763,-150.991 211.7764,-140.991 204.7764,-140.9909"/>
</g>
<!-- HttpModule -->
<g id="node4" class="node">
<title>HttpModule</title>
<polygon fill="#8dd3c7" stroke="#000000" points="118.9387,-122 115.9387,-126 94.9387,-126 91.9387,-122 34.0613,-122 34.0613,-86 118.9387,-86 118.9387,-122"/>
<text text-anchor="middle" x="76.5" y="-99.8" font-family="Times,serif" font-size="14.00" fill="#000000">HttpModule</text>
</g>
<!-- HttpModule&#45;&gt;AppModule -->
<g id="edge4" class="edge">
<title>HttpModule&#45;&gt;AppModule</title>
<path fill="none" stroke="#000000" d="M76.5,-122.1061C76.5,-141.3391 76.5,-169 76.5,-169 76.5,-169 182.5737,-169 182.5737,-169"/>
<polygon fill="#000000" stroke="#000000" points="182.5738,-172.5001 192.5737,-169 182.5737,-165.5001 182.5738,-172.5001"/>
</g>
<!-- LayoutComponent  -->
<g id="node6" class="node">
<title>LayoutComponent </title>
<polygon fill="#80b1d3" stroke="#000000" points="296.9912,-252 172.0088,-252 172.0088,-216 296.9912,-216 296.9912,-252"/>
<text text-anchor="middle" x="234.5" y="-229.8" font-family="Times,serif" font-size="14.00" fill="#000000">LayoutComponent </text>
</g>
<!-- AppModule&#45;&gt;LayoutComponent  -->
<g id="edge5" class="edge">
<title>AppModule&#45;&gt;LayoutComponent </title>
<path fill="none" stroke="#000000" stroke-dasharray="1,5" d="M234.5,-187.1061C234.5,-187.1061 234.5,-205.991 234.5,-205.991"/>
<polygon fill="#000000" stroke="#000000" points="231.0001,-205.9909 234.5,-215.991 238.0001,-205.991 231.0001,-205.9909"/>
</g>
</g>
</svg>
