<?xml version="1.0" encoding="UTF-8" standalone="no"?>
<!DOCTYPE svg PUBLIC "-//W3C//DTD SVG 1.1//EN"
 "http://www.w3.org/Graphics/SVG/1.1/DTD/svg11.dtd">
<!-- Generated by graphviz version 2.40.1 (20161225.0304)
 -->
<!-- Title: dependencies Pages: 1 -->
<svg width="1431pt" height="360pt"
 viewBox="0.00 0.00 1431.00 360.00" xmlns="http://www.w3.org/2000/svg" xmlns:xlink="http://www.w3.org/1999/xlink">
<g id="graph0" class="graph" transform="scale(1 1) rotate(0) translate(4 356)">
<title>dependencies</title>
<polygon fill="#ffffff" stroke="transparent" points="-4,4 -4,-356 1427,-356 1427,4 -4,4"/>
<text text-anchor="start" x="690.5091" y="-42.4" font-family="sans-serif" font-weight="bold" font-size="14.00" fill="#000000">Legend</text>
<polygon fill="#ffffb3" stroke="transparent" points="477.5,-10 477.5,-30 497.5,-30 497.5,-10 477.5,-10"/>
<text text-anchor="start" x="501.129" y="-15.4" font-family="sans-serif" font-size="14.00" fill="#000000"> &#160;Declarations</text>
<polygon fill="#8dd3c7" stroke="transparent" points="590.5,-10 590.5,-30 610.5,-30 610.5,-10 590.5,-10"/>
<text text-anchor="start" x="614.2251" y="-15.4" font-family="sans-serif" font-size="14.00" fill="#000000"> &#160;Module</text>
<polygon fill="#80b1d3" stroke="transparent" points="676.5,-10 676.5,-30 696.5,-30 696.5,-10 676.5,-10"/>
<text text-anchor="start" x="700.2812" y="-15.4" font-family="sans-serif" font-size="14.00" fill="#000000"> &#160;Bootstrap</text>
<polygon fill="#fdb462" stroke="transparent" points="773.5,-10 773.5,-30 793.5,-30 793.5,-10 773.5,-10"/>
<text text-anchor="start" x="797.1732" y="-15.4" font-family="sans-serif" font-size="14.00" fill="#000000"> &#160;Providers</text>
<polygon fill="#fb8072" stroke="transparent" points="869.5,-10 869.5,-30 889.5,-30 889.5,-10 869.5,-10"/>
<text text-anchor="start" x="893.2258" y="-15.4" font-family="sans-serif" font-size="14.00" fill="#000000"> &#160;Exports</text>
<g id="clust1" class="cluster">
<title>cluster_AboutModule</title>
<polygon fill="none" stroke="#000000" stroke-dasharray="1,5" points="8,-70 8,-206 491,-206 491,-70 8,-70"/>
</g>
<g id="clust2" class="cluster">
<title>cluster_AboutModule_declarations</title>
<polygon fill="none" stroke="#000000" points="16,-78 16,-130 148,-130 148,-78 16,-78"/>
</g>
<g id="clust4" class="cluster">
<title>cluster_AboutModule_imports</title>
<polygon fill="none" stroke="#000000" points="156,-78 156,-130 483,-130 483,-78 156,-78"/>
</g>
<g id="clust8" class="cluster">
<title>cluster_AppModule</title>
<polygon fill="none" stroke="#000000" stroke-dasharray="1,5" points="508,-146 508,-344 967,-344 967,-146 508,-146"/>
</g>
<g id="clust10" class="cluster">
<title>cluster_AppModule_imports</title>
<polygon fill="none" stroke="#000000" points="516,-154 516,-206 959,-206 959,-154 516,-154"/>
</g>
<g id="clust12" class="cluster">
<title>cluster_AppModule_bootstrap</title>
<polygon fill="none" stroke="#000000" points="771,-284 771,-336 911,-336 911,-284 771,-284"/>
</g>
<g id="clust14" class="cluster">
<title>cluster_CoreModule</title>
<polygon fill="none" stroke="#000000" stroke-dasharray="1,5" points="499,-70 499,-138 1259,-138 1259,-70 499,-70"/>
</g>
<g id="clust15" class="cluster">
<title>cluster_CoreModule_declarations</title>
<polygon fill="none" stroke="#000000" points="709,-78 709,-130 1251,-130 1251,-78 709,-78"/>
</g>
<g id="clust20" class="cluster">
<title>cluster_CoreModule_imports</title>
<polygon fill="none" stroke="#000000" points="507,-78 507,-130 701,-130 701,-78 507,-78"/>
</g>
<g id="clust24" class="cluster">
<title>cluster_HomeModule</title>
<polygon fill="none" stroke="#000000" stroke-dasharray="1,5" points="1267,-70 1267,-206 1415,-206 1415,-70 1267,-70"/>
</g>
<g id="clust25" class="cluster">
<title>cluster_HomeModule_declarations</title>
<polygon fill="none" stroke="#000000" points="1275,-78 1275,-130 1407,-130 1407,-78 1275,-78"/>
</g>
<!-- AboutComponent -->
<g id="node1" class="node">
<title>AboutComponent</title>
<polygon fill="#ffffb3" stroke="#000000" points="140.3301,-122 23.6699,-122 23.6699,-86 140.3301,-86 140.3301,-122"/>
<text text-anchor="middle" x="82" y="-99.8" font-family="Times,serif" font-size="14.00" fill="#000000">AboutComponent</text>
</g>
<!-- AboutModule -->
<g id="node2" class="node">
<title>AboutModule</title>
<polygon fill="#8dd3c7" stroke="#000000" points="267.0481,-198 264.0481,-202 243.0481,-202 240.0481,-198 172.9519,-198 172.9519,-162 267.0481,-162 267.0481,-198"/>
<text text-anchor="middle" x="220" y="-175.8" font-family="Times,serif" font-size="14.00" fill="#000000">AboutModule</text>
</g>
<!-- AboutComponent&#45;&gt;AboutModule -->
<g id="edge1" class="edge">
<title>AboutComponent&#45;&gt;AboutModule</title>
<path fill="none" stroke="#000000" d="M82,-122.0109C82,-144.4852 82,-180 82,-180 82,-180 162.8942,-180 162.8942,-180"/>
<polygon fill="#000000" stroke="#000000" points="162.8942,-183.5001 172.8942,-180 162.8942,-176.5001 162.8942,-183.5001"/>
</g>
<!-- CommonModule -->
<g id="node3" class="node">
<title>CommonModule</title>
<polygon fill="#8dd3c7" stroke="#000000" points="275.6681,-122 272.6681,-126 251.6681,-126 248.6681,-122 164.3319,-122 164.3319,-86 275.6681,-86 275.6681,-122"/>
<text text-anchor="middle" x="220" y="-99.8" font-family="Times,serif" font-size="14.00" fill="#000000">CommonModule</text>
</g>
<!-- CommonModule&#45;&gt;AboutModule -->
<g id="edge2" class="edge">
<title>CommonModule&#45;&gt;AboutModule</title>
<path fill="none" stroke="#000000" d="M220,-122.0109C220,-122.0109 220,-151.855 220,-151.855"/>
<polygon fill="#000000" stroke="#000000" points="216.5001,-151.8549 220,-161.855 223.5001,-151.855 216.5001,-151.8549"/>
</g>
<!-- CoreModule -->
<g id="node7" class="node">
<title>CoreModule</title>
<polygon fill="#8dd3c7" stroke="#000000" points="951.2619,-198 948.2619,-202 927.2619,-202 924.2619,-198 864.7381,-198 864.7381,-162 951.2619,-162 951.2619,-198"/>
<text text-anchor="middle" x="908" y="-175.8" font-family="Times,serif" font-size="14.00" fill="#000000">CoreModule</text>
</g>
<!-- CommonModule&#45;&gt;CoreModule -->
<g id="edge13" class="edge">
<title>CommonModule&#45;&gt;CoreModule</title>
<path fill="none" stroke="#000000" d="M270.1269,-122.0511C270.1269,-136.373 270.1269,-154 270.1269,-154 270.1269,-154 886.3096,-154 886.3096,-154 886.3096,-154 886.3096,-154.7942 886.3096,-154.7942"/>
<polygon fill="#000000" stroke="#000000" points="882.8097,-151.9421 886.3096,-161.9421 889.8097,-151.9422 882.8097,-151.9421"/>
</g>
<!-- HomeModule -->
<g id="node17" class="node">
<title>HomeModule</title>
<polygon fill="#8dd3c7" stroke="#000000" points="1368.7619,-198 1365.7619,-202 1344.7619,-202 1341.7619,-198 1275.2381,-198 1275.2381,-162 1368.7619,-162 1368.7619,-198"/>
<text text-anchor="middle" x="1322" y="-175.8" font-family="Times,serif" font-size="14.00" fill="#000000">HomeModule</text>
</g>
<!-- CommonModule&#45;&gt;HomeModule -->
<g id="edge17" class="edge">
<title>CommonModule&#45;&gt;HomeModule</title>
<path fill="none" stroke="#000000" d="M272.9804,-122.1944C272.9804,-130.2782 272.9804,-138 272.9804,-138 272.9804,-138 1277.8221,-138 1277.8221,-138 1277.8221,-138 1277.8221,-151.9445 1277.8221,-151.9445"/>
<polygon fill="#000000" stroke="#000000" points="1274.3222,-151.9444 1277.8221,-161.9445 1281.3222,-151.9445 1274.3222,-151.9444"/>
</g>
<!-- RouterModule.forChild(args) -->
<g id="node4" class="node">
<title>RouterModule.forChild(args)</title>
<polygon fill="#8dd3c7" stroke="#000000" points="474.7323,-122 471.7323,-126 450.7323,-126 447.7323,-122 293.2677,-122 293.2677,-86 474.7323,-86 474.7323,-122"/>
<text text-anchor="middle" x="384" y="-99.8" font-family="Times,serif" font-size="14.00" fill="#000000">RouterModule.forChild(args)</text>
</g>
<!-- RouterModule.forChild(args)&#45;&gt;AboutModule -->
<g id="edge3" class="edge">
<title>RouterModule.forChild(args)&#45;&gt;AboutModule</title>
<path fill="none" stroke="#000000" d="M414.2054,-122.0109C414.2054,-144.4852 414.2054,-180 414.2054,-180 414.2054,-180 277.508,-180 277.508,-180"/>
<polygon fill="#000000" stroke="#000000" points="277.508,-176.5001 267.508,-180 277.5079,-183.5001 277.508,-176.5001"/>
</g>
<!-- RouterModule.forChild(args)&#45;&gt;HomeModule -->
<g id="edge18" class="edge">
<title>RouterModule.forChild(args)&#45;&gt;HomeModule</title>
<path fill="none" stroke="#000000" d="M353.7946,-122.0579C353.7946,-126.4945 353.7946,-130 353.7946,-130 353.7946,-130 1280.525,-130 1280.525,-130 1280.525,-130 1280.525,-151.9489 1280.525,-151.9489"/>
<polygon fill="#000000" stroke="#000000" points="1277.0251,-151.9488 1280.525,-161.9489 1284.0251,-151.9489 1277.0251,-151.9488"/>
</g>
<!-- BrowserModule -->
<g id="node5" class="node">
<title>BrowserModule</title>
<polygon fill="#8dd3c7" stroke="#000000" points="630.4734,-198 627.4734,-202 606.4734,-202 603.4734,-198 523.5266,-198 523.5266,-162 630.4734,-162 630.4734,-198"/>
<text text-anchor="middle" x="577" y="-175.8" font-family="Times,serif" font-size="14.00" fill="#000000">BrowserModule</text>
</g>
<!-- AppModule -->
<g id="node9" class="node">
<title>AppModule</title>
<polygon fill="#8dd3c7" stroke="#000000" points="840.6571,-263 837.6571,-267 816.6571,-267 813.6571,-263 757.3429,-263 757.3429,-227 840.6571,-227 840.6571,-263"/>
<text text-anchor="middle" x="799" y="-240.8" font-family="Times,serif" font-size="14.00" fill="#000000">AppModule</text>
</g>
<!-- BrowserModule&#45;&gt;AppModule -->
<g id="edge4" class="edge">
<title>BrowserModule&#45;&gt;AppModule</title>
<path fill="none" stroke="#000000" d="M577,-198.2843C577,-219.3211 577,-251 577,-251 577,-251 747.2435,-251 747.2435,-251"/>
<polygon fill="#000000" stroke="#000000" points="747.2435,-254.5001 757.2435,-251 747.2435,-247.5001 747.2435,-254.5001"/>
</g>
<!-- FormsModule -->
<g id="node6" class="node">
<title>FormsModule</title>
<polygon fill="#8dd3c7" stroke="#000000" points="846.8288,-198 843.8288,-202 822.8288,-202 819.8288,-198 751.1712,-198 751.1712,-162 846.8288,-162 846.8288,-198"/>
<text text-anchor="middle" x="799" y="-175.8" font-family="Times,serif" font-size="14.00" fill="#000000">FormsModule</text>
</g>
<!-- FormsModule&#45;&gt;AppModule -->
<g id="edge5" class="edge">
<title>FormsModule&#45;&gt;AppModule</title>
<path fill="none" stroke="#000000" d="M799,-198.1061C799,-198.1061 799,-216.991 799,-216.991"/>
<polygon fill="#000000" stroke="#000000" points="795.5001,-216.9909 799,-226.991 802.5001,-216.991 795.5001,-216.9909"/>
</g>
<!-- CoreModule&#45;&gt;AppModule -->
<g id="edge6" class="edge">
<title>CoreModule&#45;&gt;AppModule</title>
<path fill="none" stroke="#000000" d="M877.4945,-198.1061C877.4945,-217.3391 877.4945,-245 877.4945,-245 877.4945,-245 851.0048,-245 851.0048,-245"/>
<polygon fill="#000000" stroke="#000000" points="851.0048,-241.5001 841.0048,-245 851.0048,-248.5001 851.0048,-241.5001"/>
</g>
<!-- LayoutComponent  -->
<g id="node10" class="node">
<title>LayoutComponent </title>
<polygon fill="#80b1d3" stroke="#000000" points="903.4912,-328 778.5088,-328 778.5088,-292 903.4912,-292 903.4912,-328"/>
<text text-anchor="middle" x="841" y="-305.8" font-family="Times,serif" font-size="14.00" fill="#000000">LayoutComponent </text>
</g>
<!-- CoreModule&#45;&gt;LayoutComponent  -->
<g id="edge15" class="edge">
<title>CoreModule&#45;&gt;LayoutComponent </title>
<path fill="none" stroke="#000000" stroke-dasharray="5,2" d="M890.3698,-198.0759C890.3698,-198.0759 890.3698,-281.6585 890.3698,-281.6585"/>
<polygon fill="#000000" stroke="#000000" points="886.8699,-281.6585 890.3698,-291.6585 893.8699,-281.6585 886.8699,-281.6585"/>
</g>
<!-- HttpModule -->
<g id="node8" class="node">
<title>HttpModule</title>
<polygon fill="#8dd3c7" stroke="#000000" points="733.4387,-198 730.4387,-202 709.4387,-202 706.4387,-198 648.5613,-198 648.5613,-162 733.4387,-162 733.4387,-198"/>
<text text-anchor="middle" x="691" y="-175.8" font-family="Times,serif" font-size="14.00" fill="#000000">HttpModule</text>
</g>
<!-- HttpModule&#45;&gt;AppModule -->
<g id="edge7" class="edge">
<title>HttpModule&#45;&gt;AppModule</title>
<path fill="none" stroke="#000000" d="M691,-198.0225C691,-215.3734 691,-239 691,-239 691,-239 747.2444,-239 747.2444,-239"/>
<polygon fill="#000000" stroke="#000000" points="747.2444,-242.5001 757.2444,-239 747.2443,-235.5001 747.2444,-242.5001"/>
</g>
<!-- AppModule&#45;&gt;LayoutComponent  -->
<g id="edge8" class="edge">
<title>AppModule&#45;&gt;LayoutComponent </title>
<path fill="none" stroke="#000000" stroke-dasharray="1,5" d="M809.7916,-263.1061C809.7916,-263.1061 809.7916,-281.991 809.7916,-281.991"/>
<polygon fill="#000000" stroke="#000000" points="806.2916,-281.9909 809.7916,-291.991 813.2916,-281.991 806.2916,-281.9909"/>
</g>
<!-- LayoutComponent -->
<g id="node11" class="node">
<title>LayoutComponent</title>
<polygon fill="#ffffb3" stroke="#000000" points="978.4902,-122 857.5098,-122 857.5098,-86 978.4902,-86 978.4902,-122"/>
<text text-anchor="middle" x="918" y="-99.8" font-family="Times,serif" font-size="14.00" fill="#000000">LayoutComponent</text>
</g>
<!-- LayoutComponent&#45;&gt;CoreModule -->
<g id="edge9" class="edge">
<title>LayoutComponent&#45;&gt;CoreModule</title>
<path fill="none" stroke="#000000" d="M929.6904,-122.0109C929.6904,-122.0109 929.6904,-151.855 929.6904,-151.855"/>
<polygon fill="#000000" stroke="#000000" points="926.1905,-151.8549 929.6904,-161.855 933.1905,-151.855 926.1905,-151.8549"/>
</g>
<!-- NavbarComponent -->
<g id="node12" class="node">
<title>NavbarComponent</title>
<polygon fill="#ffffb3" stroke="#000000" points="839.0297,-122 716.9703,-122 716.9703,-86 839.0297,-86 839.0297,-122"/>
<text text-anchor="middle" x="778" y="-99.8" font-family="Times,serif" font-size="14.00" fill="#000000">NavbarComponent</text>
</g>
<!-- NavbarComponent&#45;&gt;CoreModule -->
<g id="edge10" class="edge">
<title>NavbarComponent&#45;&gt;CoreModule</title>
<path fill="none" stroke="#000000" d="M839.18,-104C846.8573,-104 852.0845,-104 852.0845,-104 852.0845,-104 852.0845,-180 852.0845,-180 852.0845,-180 854.494,-180 854.494,-180"/>
<polygon fill="#000000" stroke="#000000" points="854.494,-183.5001 864.494,-180 854.4939,-176.5001 854.494,-183.5001"/>
</g>
<!-- FooterComponent -->
<g id="node13" class="node">
<title>FooterComponent</title>
<polygon fill="#ffffb3" stroke="#000000" points="1242.8809,-122 1125.1191,-122 1125.1191,-86 1242.8809,-86 1242.8809,-122"/>
<text text-anchor="middle" x="1184" y="-99.8" font-family="Times,serif" font-size="14.00" fill="#000000">FooterComponent</text>
</g>
<!-- FooterComponent&#45;&gt;CoreModule -->
<g id="edge11" class="edge">
<title>FooterComponent&#45;&gt;CoreModule</title>
<path fill="none" stroke="#000000" d="M1184,-122.1985C1184,-146.3563 1184,-186 1184,-186 1184,-186 961.4286,-186 961.4286,-186"/>
<polygon fill="#000000" stroke="#000000" points="961.4287,-182.5001 951.4286,-186 961.4286,-189.5001 961.4287,-182.5001"/>
</g>
<!-- MainComponent -->
<g id="node14" class="node">
<title>MainComponent</title>
<polygon fill="#ffffb3" stroke="#000000" points="1107.3823,-122 996.6177,-122 996.6177,-86 1107.3823,-86 1107.3823,-122"/>
<text text-anchor="middle" x="1052" y="-99.8" font-family="Times,serif" font-size="14.00" fill="#000000">MainComponent</text>
</g>
<!-- MainComponent&#45;&gt;CoreModule -->
<g id="edge12" class="edge">
<title>MainComponent&#45;&gt;CoreModule</title>
<path fill="none" stroke="#000000" d="M1052,-122.0267C1052,-142.7672 1052,-174 1052,-174 1052,-174 961.5955,-174 961.5955,-174"/>
<polygon fill="#000000" stroke="#000000" points="961.5956,-170.5001 951.5955,-174 961.5955,-177.5001 961.5956,-170.5001"/>
</g>
<!-- RouterModule.forRoot(args) -->
<g id="node15" class="node">
<title>RouterModule.forRoot(args)</title>
<polygon fill="#8dd3c7" stroke="#000000" points="692.8419,-122 689.8419,-126 668.8419,-126 665.8419,-122 515.1581,-122 515.1581,-86 692.8419,-86 692.8419,-122"/>
<text text-anchor="middle" x="604" y="-99.8" font-family="Times,serif" font-size="14.00" fill="#000000">RouterModule.forRoot(args)</text>
</g>
<!-- RouterModule.forRoot(args)&#45;&gt;CoreModule -->
<g id="edge14" class="edge">
<title>RouterModule.forRoot(args)&#45;&gt;CoreModule</title>
<path fill="none" stroke="#000000" d="M670.726,-122.0555C670.726,-133.439 670.726,-146 670.726,-146 670.726,-146 908,-146 908,-146 908,-146 908,-151.8056 908,-151.8056"/>
<polygon fill="#000000" stroke="#000000" points="904.5001,-151.8055 908,-161.8056 911.5001,-151.8056 904.5001,-151.8055"/>
</g>
<!-- HomeComponent -->
<g id="node16" class="node">
<title>HomeComponent</title>
<polygon fill="#ffffb3" stroke="#000000" points="1398.5451,-122 1283.4549,-122 1283.4549,-86 1398.5451,-86 1398.5451,-122"/>
<text text-anchor="middle" x="1341" y="-99.8" font-family="Times,serif" font-size="14.00" fill="#000000">HomeComponent</text>
</g>
<!-- HomeComponent&#45;&gt;HomeModule -->
<g id="edge16" class="edge">
<title>HomeComponent&#45;&gt;HomeModule</title>
<path fill="none" stroke="#000000" d="M1326.0543,-122.0109C1326.0543,-122.0109 1326.0543,-151.855 1326.0543,-151.855"/>
<polygon fill="#000000" stroke="#000000" points="1322.5544,-151.8549 1326.0543,-161.855 1329.5544,-151.855 1322.5544,-151.8549"/>
</g>
</g>
</svg>
